<svg version="1.0" xmlns="http://www.w3.org/2000/svg" width="520.000000pt" height="292.000000pt"
    viewBox="0 0 520.000000 292.000000" preserveAspectRatio="xMidYMid meet">

    <g transform="translate(0.000000,292.000000) scale(0.100000,-0.100000)" fill="currentColor" stroke="none">
        <path d="M3303 2878 c-57 -28 -66 -118 -20 -213 14 -27 55 -124 92 -215 37
-91 78 -189 92 -219 14 -31 22 -64 19 -76 -3 -12 -35 -41 -73 -67 -62 -41
-144 -113 -423 -368 -52 -48 -151 -138 -220 -200 -69 -63 -170 -155 -225 -205
-935 -857 -902 -829 -1029 -889 -142 -68 -253 -91 -409 -83 -170 8 -295 51
-439 149 -162 109 -287 289 -346 497 -11 40 -16 98 -15 206 0 141 2 155 32
242 143 423 542 667 960 588 175 -34 311 -104 439 -229 147 -142 226 -300 255
-513 l12 -92 51 47 c28 26 78 70 110 98 59 51 59 51 59 106 0 30 -6 66 -12 79
-29 56 -103 243 -103 260 0 18 14 19 273 19 242 0 275 2 298 18 50 32 219 187
219 200 0 9 -99 12 -462 12 -349 0 -469 3 -488 13 -15 7 -33 33 -46 67 -63
153 -145 373 -147 393 -2 21 1 22 124 27 98 4 131 9 152 23 54 35 60 118 12
166 l-25 26 -384 0 c-412 0 -422 -1 -445 -52 -14 -31 -14 -75 0 -106 19 -43
58 -57 157 -57 76 0 94 -3 123 -23 44 -30 73 -75 94 -145 10 -31 23 -74 31
-95 8 -21 12 -42 10 -46 -3 -4 -42 5 -88 20 -135 45 -225 59 -370 59 -137 0
-220 -13 -338 -51 -311 -100 -575 -348 -694 -649 -57 -145 -68 -212 -70 -400
0 -116 4 -192 12 -225 50 -190 88 -281 173 -410 59 -92 208 -244 290 -298 67
-43 209 -117 227 -117 7 0 20 -4 30 -9 73 -37 233 -64 382 -64 190 -1 325 31
490 113 130 65 149 81 900 770 129 118 303 276 385 351 83 75 238 216 345 314
217 198 304 267 325 258 8 -3 15 -9 15 -15 0 -8 153 -376 205 -493 12 -27 40
-92 61 -144 24 -57 53 -110 75 -133 31 -33 42 -38 82 -38 38 0 49 5 71 31 42
49 35 104 -34 253 -10 23 -32 77 -49 121 -18 44 -36 89 -41 100 -10 21 -74
174 -130 307 -17 43 -30 85 -28 95 9 47 199 66 348 35 287 -59 526 -248 630
-499 57 -137 64 -175 64 -343 0 -134 -3 -165 -23 -230 -80 -258 -280 -472
-526 -562 -113 -42 -172 -52 -300 -51 -111 1 -149 7 -260 41 -153 47 -345 198
-437 342 -76 119 -115 228 -138 388 l-12 83 -52 -48 c-28 -26 -77 -71 -109
-99 -72 -65 -76 -85 -42 -189 105 -311 283 -527 540 -655 201 -100 319 -124
568 -117 159 4 193 8 267 31 396 122 699 456 783 866 14 68 14 326 -1 400 -16
86 -61 218 -100 295 -158 316 -424 521 -777 602 -94 21 -342 22 -445 0 -79
-16 -101 -12 -120 23 -30 57 -150 366 -146 377 4 10 43 13 156 13 178 0 213
10 236 65 24 57 6 118 -43 143 -29 16 -558 15 -590 0z" />
    </g>
</svg>